<svg width="304" height="19" viewBox="0 0 304 19" fill="none" xmlns="http://www.w3.org/2000/svg">
<path d="M298.137 5.42023C298.647 6.26865 298.389 7.46416 297.632 8.10289C296.876 8.74242 295.73 8.82516 294.838 8.39533C293.338 7.67144 292.74 5.61224 293.463 4.11144C294.187 2.61063 296 1.79114 297.646 2.04663C299.292 2.30292 300.706 3.51611 301.407 5.02736C302.108 6.53861 302.149 8.30293 301.732 9.91621C300.557 14.466 295.484 17.6203 290.884 16.6602C289.744 16.4224 288.617 15.9435 287.834 15.0831C287.051 14.2226 286.679 12.9299 287.12 11.8525C287.56 10.7759 288.923 10.1002 289.974 10.5983C291.084 11.123 291.392 12.6736 290.885 13.792C290.378 14.9103 289.288 15.6495 288.175 16.1693C288.175 16.1693 285.068 17.5625 282.738 17.3166H184.02" stroke="#F49C36" stroke-width="2.04503" stroke-miterlimit="10" stroke-linecap="round" stroke-linejoin="round"/>
<path d="M5.8634 5.42023C5.3521 6.26865 5.61168 7.46416 6.36739 8.10289C7.12374 8.74242 8.26959 8.82516 9.16124 8.39533C10.6616 7.67144 11.2599 5.61224 10.5371 4.11144C9.8137 2.61063 7.9994 1.79114 6.35389 2.04663C4.70783 2.30292 3.29427 3.51611 2.59288 5.02736C1.89108 6.53861 1.85188 8.30293 2.26805 9.91621C3.44307 14.466 8.5156 17.6203 13.1159 16.6602C14.2551 16.4224 15.3824 15.9435 16.1655 15.0831C16.9485 14.2226 17.3201 12.9299 16.8804 11.8525C16.4407 10.7759 15.0774 10.1002 14.0257 10.5983C12.916 11.123 12.6071 12.6736 13.1144 13.792C13.6212 14.9103 14.7117 15.6495 15.824 16.1693C15.824 16.1693 18.9323 17.5625 21.2626 17.3166H119.98" stroke="#F49C36" stroke-width="2.04503" stroke-miterlimit="10" stroke-linecap="round" stroke-linejoin="round"/>
<path d="M120.295 8.10222C118.599 9.18766 118.975 12.4391 120.912 12.9903C122.723 13.5061 124.333 12.8569 125.763 10.9022C126.952 9.27602 126.332 6.48493 124.651 5.37539C117.23 0.481702 110.672 12.3395 118.36 16.5848C121.448 18.2905 125.415 16.8917 128.198 14.7249C130.982 12.5572 133.084 9.6231 135.811 7.38555C138.54 5.1488 142.343 3.64238 145.59 5.02187C147.722 5.92814 149.277 8.06688 149.481 10.3751C149.685 12.6826 148.53 15.0607 146.589 16.3269C144.708 17.5554 142.02 17.6405 140.299 16.196C138.577 14.7514 138.322 11.7394 140.025 10.2747C141.729 8.80925 144.974 9.877 145.179 12.1145" stroke="#F49C36" stroke-width="2.09629" stroke-miterlimit="10" stroke-linecap="round" stroke-linejoin="round"/>
<path d="M184.335 8.10222C186.031 9.18766 185.655 12.4391 183.718 12.9903C181.907 13.5061 180.297 12.8569 178.866 10.9022C177.678 9.27602 178.297 6.48493 179.979 5.37539C187.401 0.481702 193.959 12.3395 186.269 16.5848C183.182 18.2905 179.215 16.8917 176.432 14.7249C173.648 12.5572 171.546 9.6231 168.819 7.38555C166.09 5.1488 162.287 3.64238 159.04 5.02187C156.907 5.92814 155.353 8.06688 155.149 10.3751C154.945 12.6826 156.1 15.0607 158.041 16.3269C159.922 17.5554 162.61 17.6405 164.332 16.196C166.052 14.7514 166.308 11.7394 164.605 10.2747C162.901 8.80925 159.656 9.877 159.451 12.1145" stroke="#F49C36" stroke-width="2.09629" stroke-miterlimit="10" stroke-linecap="round" stroke-linejoin="round"/>
</svg>
