<svg width="304" height="19" viewBox="0 0 304 19" fill="none" xmlns="http://www.w3.org/2000/svg">
<path d="M298.137 5.41974C298.647 6.26816 298.389 7.46367 297.632 8.1024C296.876 8.74193 295.73 8.82467 294.838 8.39484C293.338 7.67095 292.74 5.61175 293.463 4.11095C294.187 2.61014 296 1.79065 297.646 2.04614C299.292 2.30243 300.706 3.51562 301.407 5.02687C302.108 6.53812 302.149 8.30244 301.732 9.91573C300.557 14.4655 295.484 17.6198 290.884 16.6597C289.744 16.4219 288.617 15.9431 287.834 15.0826C287.051 14.2221 286.679 12.9294 287.12 11.852C287.56 10.7754 288.923 10.0997 289.974 10.5979C291.084 11.1225 291.392 12.6731 290.885 13.7915C290.378 14.9099 289.288 15.649 288.175 16.1688C288.175 16.1688 285.068 17.562 282.738 17.3161H184.02" stroke="white" stroke-width="2.04503" stroke-miterlimit="10" stroke-linecap="round" stroke-linejoin="round"/>
<path d="M5.8634 5.41974C5.3521 6.26816 5.61168 7.46367 6.36739 8.1024C7.12374 8.74193 8.26959 8.82467 9.16124 8.39484C10.6616 7.67095 11.2599 5.61175 10.5371 4.11095C9.8137 2.61014 7.9994 1.79065 6.35389 2.04614C4.70783 2.30243 3.29427 3.51562 2.59288 5.02687C1.89108 6.53812 1.85188 8.30244 2.26805 9.91573C3.44307 14.4655 8.5156 17.6198 13.1159 16.6597C14.2551 16.4219 15.3824 15.9431 16.1655 15.0826C16.9485 14.2221 17.3201 12.9294 16.8804 11.852C16.4407 10.7754 15.0774 10.0997 14.0257 10.5979C12.916 11.1225 12.6071 12.6731 13.1144 13.7915C13.6212 14.9099 14.7117 15.649 15.824 16.1688C15.824 16.1688 18.9323 17.562 21.2626 17.3161H119.98" stroke="white" stroke-width="2.04503" stroke-miterlimit="10" stroke-linecap="round" stroke-linejoin="round"/>
<path d="M120.295 8.10174C118.599 9.18717 118.975 12.4386 120.912 12.9898C122.723 13.5056 124.333 12.8564 125.763 10.9017C126.952 9.27554 126.332 6.48444 124.651 5.3749C117.23 0.481214 110.672 12.339 118.36 16.5843C121.448 18.29 125.415 16.8912 128.198 14.7244C130.982 12.5567 133.084 9.62262 135.811 7.38506C138.54 5.14832 142.343 3.64189 145.59 5.02138C147.722 5.92765 149.277 8.06639 149.481 10.3746C149.685 12.6821 148.53 15.0602 146.589 16.3264C144.708 17.5549 142.02 17.64 140.299 16.1955C138.577 14.7509 138.322 11.7389 140.025 10.2742C141.729 8.80876 144.974 9.87651 145.179 12.1141" stroke="white" stroke-width="2.09629" stroke-miterlimit="10" stroke-linecap="round" stroke-linejoin="round"/>
<path d="M184.335 8.10174C186.031 9.18717 185.655 12.4386 183.718 12.9898C181.907 13.5056 180.297 12.8564 178.866 10.9017C177.678 9.27554 178.297 6.48444 179.979 5.3749C187.401 0.481214 193.959 12.339 186.269 16.5843C183.182 18.29 179.215 16.8912 176.432 14.7244C173.648 12.5567 171.546 9.62262 168.819 7.38506C166.09 5.14832 162.287 3.64189 159.04 5.02138C156.907 5.92765 155.353 8.06639 155.149 10.3746C154.945 12.6821 156.1 15.0602 158.041 16.3264C159.922 17.5549 162.61 17.64 164.332 16.1955C166.052 14.7509 166.308 11.7389 164.605 10.2742C162.901 8.80876 159.656 9.87651 159.451 12.1141" stroke="white" stroke-width="2.09629" stroke-miterlimit="10" stroke-linecap="round" stroke-linejoin="round"/>
</svg>
