<svg width="55" height="62" viewBox="0 0 55 62" fill="none" xmlns="http://www.w3.org/2000/svg">
<path d="M25.4195 0.785088C18.9092 4.10482 11.0167 6.3266 3.22761 7.04996C0.773335 7.26955 0.398734 7.37289 0.140389 7.87667C-0.0921217 8.30294 -0.0146181 27.808 0.217893 29.7068C1.23836 38.116 3.55055 44.1354 7.80033 49.4573C11.9597 54.6372 17.6174 58.4865 25.3936 61.4058C26.2978 61.7417 27.215 62 27.4992 62C28.4421 62 33.2215 60.0495 36.1408 58.4736C47.6888 52.2345 53.8116 42.2883 54.8708 28.0276C54.9354 27.0717 55 22.1632 55 17.1383V7.98L54.6254 7.6054C54.4187 7.39873 54.1087 7.2308 53.9279 7.2308C52.2874 7.2308 46.9784 6.49452 44.0591 5.87449C38.8147 4.75069 32.6015 2.516 28.778 0.397572C27.7058 -0.196625 27.2279 -0.144955 25.4195 0.785088ZM28.9201 3.4848C34.7845 6.42993 42.4057 8.66462 49.4456 9.49133C50.4015 9.59466 51.4348 9.72383 51.7449 9.76259L52.3003 9.82717L52.2486 19.2826C52.197 29.3064 52.184 29.5906 51.5123 33.1299C50.8536 36.553 49.9235 39.4335 48.5285 42.2366C46.9525 45.4013 45.5317 47.4164 43.1807 49.8449C39.538 53.5909 34.7974 56.5618 28.933 58.7578L27.4862 59.3132L26.0395 58.7707C17.2428 55.4509 11.1071 50.5553 7.16738 43.7221C5.56564 40.9319 4.10599 36.7338 3.40846 32.9362C2.80134 29.5906 2.77551 29.1643 2.72384 19.2826L2.67217 9.82717L3.22761 9.76259C3.53763 9.72383 4.36433 9.6205 5.07478 9.55591C11.8951 8.81963 19.7746 6.57202 25.6132 3.69147C26.5433 3.23937 27.37 2.85185 27.4604 2.85185C27.5508 2.83893 28.2096 3.13603 28.9201 3.4848Z" fill="#06325E"/>
<path d="M25.6144 16.6733C23.5476 16.9316 21.1709 17.8358 19.3108 19.0759C18.1224 19.8638 16.3527 21.6335 15.5648 22.8219C11.6638 28.6992 12.3742 36.3075 17.2957 41.2161C22.9405 46.8351 32.0601 46.8351 37.692 41.2031C43.324 35.5712 43.324 26.4258 37.692 20.7939C34.5144 17.6162 30.1096 16.1178 25.6144 16.6733ZM29.4896 19.4376C33.1581 20.0834 36.3486 22.4731 38.015 25.8704C38.9192 27.7046 39.1517 28.7638 39.1517 30.9985C39.1517 33.2332 38.9192 34.2924 38.015 36.1267C36.6845 38.8264 34.4369 40.8802 31.5951 41.9782C26.0278 44.1225 19.6079 41.5519 16.9598 36.1267C16.0556 34.2537 15.8231 33.2203 15.8231 30.9985C15.8231 28.7767 16.0556 27.7434 16.9598 25.8704C19.2462 21.1814 24.3614 18.5463 29.4896 19.4376Z" fill="#06325E"/>
<path d="M32.4583 25.7539C32.2516 25.8572 30.5853 27.5235 28.7769 29.487L25.483 33.0263L24.708 32.1738C22.99 30.262 22.512 29.8357 22.0858 29.8357C20.9361 29.8357 20.2386 30.9983 20.8586 31.9025C21.3753 32.6517 24.7209 36.2039 25.018 36.3202C25.8318 36.6302 25.948 36.5269 30.0945 32.0833C32.2516 29.7582 34.073 27.7431 34.1634 27.5881C34.4347 27.1102 34.3701 26.516 33.9826 26.1026C33.5563 25.6505 32.9879 25.5214 32.4583 25.7539Z" fill="#06325E"/>
</svg>
