<svg width="80" height="50" viewBox="0 0 80 50" fill="none" xmlns="http://www.w3.org/2000/svg">
<path d="M9.62407 0.661037C9.28035 0.770401 8.84289 1.05162 8.63979 1.25473C8.38981 1.48908 6.84309 5.20747 4.14022 12.0818C0.687433 20.7997 0 22.6589 0 23.3151C0 24.1744 0.374964 24.9399 0.968656 25.3149C1.76545 25.8148 8.26482 28.2365 8.82727 28.2365C9.13974 28.2365 9.60844 28.1271 9.85842 27.9865L10.3271 27.7522L13.1862 29.5489L16.0453 31.3612L15.7328 32.2517C14.8267 34.9546 16.5765 37.6418 19.4981 38.0168C20.2012 38.1105 20.3105 38.1574 20.3105 38.4699C20.3105 40.0478 22.4509 41.9852 24.2164 41.9852H24.9195L25.1226 42.7976C25.2163 43.2507 25.4819 43.8756 25.7006 44.2193C26.3724 45.2036 27.9348 46.0473 29.1378 46.0473C29.5753 46.0473 29.6221 46.1098 29.8721 46.9534C30.4189 48.8282 32.0438 50 34.0748 50C35.5903 50 36.434 49.5469 37.7776 48.0158L38.2932 47.4377L39.2931 48.1564C40.7929 49.2188 41.4491 49.4844 42.7459 49.4844C44.1363 49.4844 45.105 49.1563 45.9955 48.3752C46.7298 47.7346 47.4954 46.391 47.4954 45.766C47.4954 45.4536 47.5423 45.4223 47.8547 45.5161C48.0422 45.5786 48.6515 45.6254 49.214 45.6254C51.4638 45.6098 53.2761 44.1724 53.776 41.9695L53.9791 41.1259L54.8853 41.1102C57.0413 41.0634 58.9005 39.5479 59.338 37.5012C59.463 36.9231 59.4786 36.9075 60.1348 36.9544C61.7128 37.0481 63.5876 36.2045 64.4156 35.0015C65.2593 33.7672 65.4468 32.6267 65.1187 30.5175C65.0874 30.2988 65.5718 29.9082 67.2279 28.8458L69.3683 27.4709L69.9307 27.8459C70.8525 28.4708 71.3681 28.3771 75.1958 26.8929C78.8986 25.4399 79.3986 25.1899 79.7579 24.4869C80.2422 23.5338 80.086 22.7839 78.4924 18.7218C77.4925 16.1752 76.8675 14.7534 76.6019 14.5191C75.8989 13.8785 74.8365 14.2066 74.5865 15.1753C74.524 15.4252 74.9459 16.6751 76.0083 19.3311C76.8207 21.4246 77.4456 23.1901 77.3831 23.2526C77.2581 23.362 71.868 25.5024 71.4306 25.6117C71.3056 25.643 69.8682 22.2058 67.2591 15.5971C65.0718 10.0508 63.2907 5.51994 63.322 5.50432C63.5251 5.34808 69.5401 3.05143 69.5714 3.0983C69.6026 3.12955 70.3213 4.91063 71.165 7.06667C72.0086 9.20708 72.7898 11.0975 72.9304 11.2381C73.071 11.41 73.3835 11.5194 73.7741 11.5194C74.524 11.5194 74.9927 11.0819 74.9927 10.3788C74.9927 10.1132 74.2584 8.00407 73.3366 5.70742C71.5712 1.22348 71.3837 0.911015 70.1807 0.598545C69.837 0.504803 69.3839 0.489182 69.0558 0.567299C68.3059 0.75478 62.2283 3.17642 61.7596 3.47327C61.1816 3.84823 60.7754 4.64503 60.7754 5.37933C60.7754 6.01989 60.7754 6.03551 59.8848 6.36361C56.1977 7.7541 55.6196 7.81659 52.3074 7.2854C50.4326 6.98855 50.2607 6.98855 49.9014 7.2229C49.1046 7.73848 49.0265 8.78525 49.7296 9.23833C50.1983 9.5508 53.7604 10.1132 55.2759 10.1132C56.6664 10.1132 57.5725 9.91014 59.9317 9.03522C60.8691 8.69151 61.6503 8.44153 61.6815 8.47278C61.8378 8.62901 68.2434 25.0337 68.1809 25.1274C68.1496 25.1899 67.0716 25.9086 65.7749 26.7366C64.3531 27.6584 63.3532 28.2052 63.2282 28.1271C63.1345 28.0646 60.8691 26.4242 58.2287 24.4712L53.4011 20.9091L51.1669 21.0028C49.214 21.0809 48.7453 21.0497 47.4485 20.7528C45.0113 20.1904 42.9958 19.0811 40.8398 17.1282C39.5743 15.9721 39.1212 15.8002 37.8713 15.9408C37.387 15.9877 36.9808 16.1595 36.5902 16.5033C33.1062 19.4405 30.2314 20.7528 28.3254 20.2841C27.4036 20.0498 26.3099 19.4248 26.0756 19.003C25.8569 18.5812 26.0287 18.3937 27.4192 17.4563C29.9033 15.7689 32.4031 13.7066 36.0278 10.3164C37.1526 9.25396 38.3244 8.2853 38.6369 8.16031C39.4024 7.84784 39.8868 7.86346 42.824 8.33217C45.3394 8.73838 45.355 8.73838 45.7612 8.44153C46.3861 7.97283 46.4174 6.70732 45.7924 6.37923C45.4018 6.1605 40.6836 5.4262 39.7305 5.4262C38.1682 5.4262 36.9652 6.00427 35.106 7.64474L34.2935 8.37904L33.2468 8.08219C31.7001 7.66036 29.8252 7.47288 26.1693 7.36351C22.5759 7.26977 22.0291 7.19165 20.3574 6.4886L19.2169 6.01989V5.41058C19.2169 4.67627 18.9044 4.00446 18.3576 3.58263C17.9201 3.23891 11.4676 0.661037 10.7021 0.520428C10.4521 0.473557 9.95216 0.536049 9.62407 0.661037ZM13.6237 4.27006C15.2798 4.92625 16.6546 5.47307 16.6703 5.48869C16.7015 5.50432 14.9204 10.0508 12.7331 15.5971C10.124 22.2214 8.68666 25.643 8.56167 25.6117C7.88986 25.4868 2.57787 23.2682 2.57787 23.112C2.57787 22.8151 10.374 3.08268 10.499 3.08268C10.5459 3.08268 11.952 3.61388 13.6237 4.27006ZM20.7792 9.37894C21.4979 9.62892 22.2478 9.70704 25.4663 9.8164C29.294 9.94139 31.7938 10.1914 31.95 10.4413C32.1063 10.6757 28.3254 13.7535 25.685 15.5658C24.7476 16.1908 24.1539 16.722 23.9508 17.1126C22.8728 19.0186 23.6852 20.9247 26.0443 22.1277C29.2159 23.7213 33.0749 22.7214 37.3245 19.1749C37.8401 18.7374 38.3088 18.3937 38.3713 18.3937C38.4181 18.3937 38.8869 18.7843 39.4024 19.253C40.6523 20.4091 41.9334 21.2684 43.652 22.0808C45.933 23.1589 47.1673 23.4245 50.1358 23.5026L52.698 23.5651L56.7601 26.5492C58.9943 28.1896 61.1659 29.8145 61.5878 30.1582C62.7439 31.0643 63.072 32.0799 62.5564 33.1735C62.0565 34.2203 60.6504 34.6734 59.6036 34.1265C59.338 34.0016 57.9319 32.9704 56.4789 31.8455C54.1666 30.0644 53.7448 29.7988 53.2448 29.7988C52.4949 29.7988 52.0262 30.2363 52.0262 30.9237C52.0262 31.2049 52.0887 31.533 52.1668 31.658C52.2449 31.7674 53.2761 32.6111 54.4635 33.5328C56.2133 34.8765 56.6664 35.2983 56.8226 35.7514C57.3226 37.2825 55.8696 38.9542 54.3229 38.6105C53.7292 38.4855 53.2292 38.1574 50.6357 36.142C48.964 34.8608 48.6047 34.6421 48.1047 34.6421C47.3704 34.6421 46.8705 35.1108 46.8705 35.8139C46.8705 36.4232 47.0423 36.6107 49.1827 38.2355C51.4481 39.9541 51.8543 40.7978 51.0575 41.9852C50.4951 42.7976 49.9483 43.1257 49.1671 43.1257C48.3391 43.1257 48.0266 42.9538 45.4643 40.9696C43.9176 39.7822 43.4333 39.4854 43.0115 39.4854C42.2459 39.4854 41.8397 39.9697 41.9022 40.7821C41.9491 41.3915 42.0272 41.5008 43.3864 42.5788C44.5894 43.5319 44.8706 43.8443 44.9956 44.3443C45.2144 45.1567 44.7769 46.2191 44.027 46.6722C43.1208 47.219 42.2771 47.1097 41.0585 46.266C40.4648 45.8754 39.9961 45.4848 39.9961 45.4223C39.9961 45.3598 40.1055 45.2192 40.2461 45.0942C40.7148 44.7036 41.1366 43.6256 41.1991 42.6101C41.3085 41.2196 40.8554 40.0635 39.9024 39.1729C39.0743 38.423 38.4806 38.1418 37.3714 37.9855L36.5746 37.8918L36.3402 37.0794C35.809 35.2514 34.2154 34.0172 32.4031 34.0172C31.7625 34.0172 31.7157 33.9859 31.7157 33.5797C31.7157 32.8767 31.0282 31.6112 30.2939 31.0018C29.5909 30.3925 28.4347 29.9551 27.5442 29.9551C27.1067 29.9551 27.0286 29.8926 27.0286 29.5957C27.0286 28.9864 26.3099 27.7053 25.6225 27.096C24.732 26.2836 24.0289 26.0023 22.8103 25.9867C21.1854 25.9555 20.5293 26.2992 18.9825 27.9709C17.8264 29.2208 17.6233 29.377 17.3889 29.2208C17.2327 29.1114 15.8578 28.2365 14.3267 27.2835C12.7956 26.3148 11.577 25.4399 11.6082 25.3618C11.9051 24.6118 17.5608 10.2695 17.8889 9.45706L18.3107 8.41029L19.1075 8.73838C19.5606 8.91024 20.3105 9.20708 20.7792 9.37894ZM23.3415 28.6115C24.357 29.0333 24.8257 30.1894 24.3414 31.0956C24.0914 31.5799 21.2948 34.814 20.8261 35.1733C19.4825 36.1888 17.4202 34.5484 18.1545 33.0329C18.5451 32.2205 21.5448 28.8458 22.0916 28.6115C22.7009 28.3459 22.7165 28.3459 23.3415 28.6115ZM28.3879 32.7673C28.6535 32.9235 28.9659 33.2204 29.0597 33.4079C29.294 33.8297 29.294 34.6577 29.0753 35.0796C28.7785 35.642 25.9194 38.9386 25.4975 39.2042C24.1227 40.1103 22.2166 38.5949 22.8572 37.1106C23.0759 36.6263 24.6695 34.6421 25.9194 33.3454C26.8099 32.3923 27.513 32.2205 28.3879 32.7673ZM33.1062 36.7513C33.5592 36.97 34.0592 37.8137 34.0592 38.3449C34.0592 38.7823 33.528 39.5479 32.0594 41.2665C30.4189 43.1725 30.2158 43.36 29.5753 43.485C28.9347 43.61 28.0285 43.1725 27.7317 42.5945C27.4192 42.0164 27.4348 41.204 27.7629 40.7353C28.3098 39.9385 30.997 36.9075 31.3095 36.72C31.7625 36.4544 32.575 36.4701 33.1062 36.7513ZM37.9651 40.8759C38.9962 41.6258 38.965 42.6726 37.8713 43.985C36.0121 46.2035 35.0435 47.2034 34.5748 47.3909C33.1218 48.0002 31.5594 46.0785 32.45 44.7974C33.1843 43.735 35.6997 40.9384 36.1371 40.6884C36.7152 40.3603 37.3714 40.4384 37.9651 40.8759Z" fill="#06325E"/>
</svg>
