<svg width="529" height="527" viewBox="0 0 529 527" fill="none" xmlns="http://www.w3.org/2000/svg">
<path d="M308.605 2.48549L310.931 5.84053L314.286 3.51451L311.96 0.159471L308.605 2.48549ZM469.939 97.3172L470.329 97.0042L469.939 97.3172ZM527.806 272.489L527.307 272.47L527.806 272.489ZM291.457 524.616L291.508 525.114L291.457 524.616ZM113.007 478.077L113.295 477.668L113.007 478.077ZM8.75983 325.892L9.24512 325.771L8.75983 325.892ZM29.777 142.604L30.2225 142.831L29.777 142.604ZM168.44 16.9065L164.682 15.3123L163.088 19.0706L166.846 20.6648L168.44 16.9065ZM311.357 3.49199C373.701 14.7846 429.874 48.2127 469.549 97.6303L470.329 97.0042C430.503 47.3988 374.116 13.8435 311.535 2.50801L311.357 3.49199ZM469.549 97.6303C509.224 147.048 529.734 209.133 527.307 272.47L528.306 272.509C530.742 208.931 510.155 146.61 470.329 97.0042L469.549 97.6303ZM527.307 272.47C524.88 335.808 499.679 396.14 456.339 442.373L457.068 443.057C500.573 396.648 525.87 336.087 528.306 272.509L527.307 272.47ZM456.339 442.373C412.998 488.607 354.431 517.635 291.406 524.119L291.508 525.114C354.773 518.605 413.563 489.467 457.068 443.057L456.339 442.373ZM291.406 524.119C228.381 530.603 165.134 514.109 113.295 477.668L112.719 478.486C164.756 515.065 228.243 531.623 291.508 525.114L291.406 524.119ZM113.295 477.668C61.455 441.227 24.5074 387.289 9.24512 325.771L8.27454 326.012C23.5948 387.763 60.6828 441.906 112.719 478.486L113.295 477.668ZM9.24512 325.771C-6.01717 264.254 1.43181 199.292 30.2225 142.831L29.3316 142.376C0.431539 199.053 -7.04573 264.261 8.27454 326.012L9.24512 325.771ZM30.2225 142.831C59.0131 86.369 107.21 42.2026 165.952 18.4521L165.577 17.525C106.612 41.3659 58.2316 85.7002 29.3316 142.376L30.2225 142.831Z" fill="#F49C36"/>
</svg>
