<svg width="63" height="10" viewBox="0 0 63 10" fill="none" xmlns="http://www.w3.org/2000/svg">
<path d="M7.47538 8.48205C7.47538 7.94179 7.91298 7.50383 8.45278 7.50383C8.99258 7.50383 9.43018 7.94179 9.43018 8.48205C9.43018 9.0223 8.99258 9.46026 8.45278 9.46026C7.91298 9.46026 7.47538 9.0223 7.47538 8.48205Z" fill="#3EB489"/>
<path d="M2.07345 9.09459C1.69175 9.47661 1.0729 9.47661 0.6912 9.09459C0.309503 8.71258 0.309503 8.09321 0.6912 7.71119L7.70484 0.691703C8.08653 0.309687 8.70539 0.309687 9.08709 0.691702C9.46878 1.07372 9.46878 1.69309 9.08709 2.0751L2.07345 9.09459Z" fill="#FDDB9A"/>
<path d="M0.307901 8.48195C0.307901 7.9417 0.745497 7.50373 1.2853 7.50373C1.8251 7.50373 2.2627 7.9417 2.2627 8.48195C2.2627 9.0222 1.8251 9.46016 1.2853 9.46016C0.745497 9.46016 0.307901 9.0222 0.307901 8.48195Z" fill="#F9A602"/>
<path d="M5.70773 9.09467C5.32603 9.47668 4.70717 9.47668 4.32548 9.09467C3.94378 8.71265 3.94378 8.09328 4.32548 7.71127L7.72235 4.31156C8.10404 3.92955 8.7229 3.92955 9.1046 4.31156C9.48629 4.69358 9.48629 5.31295 9.1046 5.69497L5.70773 9.09467Z" fill="#A1BAD1"/>
<path d="M3.94218 8.48202C3.94218 7.94177 4.37977 7.50381 4.91958 7.50381C5.45938 7.50381 5.89697 7.94177 5.89697 8.48202C5.89697 9.02228 5.45938 9.46024 4.91958 9.46024C4.37977 9.46024 3.94218 9.02228 3.94218 8.48202Z" fill="#13528B"/>
<path d="M13.8567 0.46051V9.78625H12.2251V0.46051H13.8567Z" fill="black" fill-opacity="0.87"/>
<path d="M17.2479 9.78625H15.6927V3.48404H17.1331L17.2606 4.30052C17.6558 3.66265 18.4206 3.29268 19.2746 3.29268C20.8552 3.29268 21.671 4.27501 21.671 5.90797V9.78625H20.1159V6.27793C20.1159 5.21906 19.5933 4.70876 18.7902 4.70876C17.8342 4.70876 17.2479 5.37215 17.2479 6.39275V9.78625Z" fill="black" fill-opacity="0.87"/>
<path d="M22.5744 3.48404H23.4794V2.71859C23.4794 1.00908 24.3462 0.294662 25.6209 0.294662C25.8631 0.294662 26.1562 0.30742 26.4239 0.35845V1.68523H25.8758C25.1747 1.68523 25.0218 2.09347 25.0218 2.71859V3.48404H27.5329V0.294662H29.088V9.78625H27.5329V4.78531H25.0218V9.78625H23.4794V4.78531H22.5744V3.48404Z" fill="black" fill-opacity="0.87"/>
<path d="M34.9878 3.48404H36.543V9.78625H35.1026L34.9878 8.94425C34.6054 9.54386 33.7896 9.9521 32.9483 9.9521C31.4952 9.9521 30.6411 8.96977 30.6411 7.42611V3.48404H32.1963V6.87754C32.1963 8.07674 32.6679 8.56153 33.5347 8.56153C34.5162 8.56153 34.9878 7.98744 34.9878 6.78823V3.48404Z" fill="black" fill-opacity="0.87"/>
<path d="M37.655 6.62239C37.655 4.67049 38.9425 3.29268 40.8035 3.29268C42.5243 3.29268 43.697 4.24949 43.8627 5.76763H42.3076C42.1292 5.05321 41.6066 4.68325 40.8672 4.68325C39.873 4.68325 39.2101 5.43594 39.2101 6.62239C39.2101 7.80884 39.822 8.54877 40.8162 8.54877C41.5938 8.54877 42.1419 8.16605 42.3076 7.47714H43.8755C43.6843 8.94425 42.4606 9.9521 40.8162 9.9521C38.9042 9.9521 37.655 8.62532 37.655 6.62239Z" fill="black" fill-opacity="0.87"/>
<path d="M47.85 9.9521C45.9762 9.9521 44.6633 8.58704 44.6633 6.63515C44.6633 4.65773 45.9507 3.29268 47.799 3.29268C49.6856 3.29268 50.8838 4.55567 50.8838 6.52033V6.99236L46.1419 7.00511C46.2567 8.11502 46.843 8.67635 47.8755 8.67635C48.7296 8.67635 49.2904 8.34465 49.4689 7.74505H50.9093C50.6416 9.12286 49.4944 9.9521 47.85 9.9521ZM47.8118 4.56843C46.894 4.56843 46.3332 5.06597 46.1802 6.01003H49.3414C49.3414 5.14252 48.7423 4.56843 47.8118 4.56843Z" fill="black" fill-opacity="0.87"/>
<path d="M53.6835 9.78625H52.1284V3.48404H53.5688L53.6963 4.30052C54.0914 3.66265 54.8562 3.29268 55.7103 3.29268C57.2909 3.29268 58.1067 4.27501 58.1067 5.90797V9.78625H56.5516V6.27793C56.5516 5.21906 56.0289 4.70876 55.2259 4.70876C54.2699 4.70876 53.6835 5.37215 53.6835 6.39275V9.78625Z" fill="black" fill-opacity="0.87"/>
<path d="M61.7761 9.78625H60.221V4.78531H59.01V3.48404H60.221V1.51938H61.7761V3.48404H62.9998V4.78531H61.7761V9.78625Z" fill="black" fill-opacity="0.87"/>
</svg>
