<svg width="63" height="10" viewBox="0 0 63 10" fill="none" xmlns="http://www.w3.org/2000/svg">
<path d="M7.47489 8.48224C7.47489 7.94199 7.91249 7.50402 8.45229 7.50402C8.99209 7.50402 9.42969 7.94199 9.42969 8.48224C9.42969 9.02249 8.99209 9.46045 8.45229 9.46045C7.91249 9.46045 7.47489 9.02249 7.47489 8.48224Z" fill="#3EB489"/>
<path d="M2.07296 9.09443C1.69126 9.47645 1.07241 9.47645 0.690712 9.09443C0.309015 8.71242 0.309014 8.09305 0.690712 7.71103L7.70435 0.691543C8.08605 0.309527 8.7049 0.309526 9.0866 0.691542C9.4683 1.07356 9.4683 1.69293 9.0866 2.07494L2.07296 9.09443Z" fill="#FDDB9A"/>
<path d="M0.307901 8.48175C0.307901 7.9415 0.745497 7.50354 1.2853 7.50354C1.8251 7.50354 2.2627 7.9415 2.2627 8.48175C2.2627 9.022 1.8251 9.45996 1.2853 9.45996C0.745497 9.45996 0.307901 9.022 0.307901 8.48175Z" fill="#F9A602"/>
<path d="M5.70675 9.09443C5.32505 9.47645 4.7062 9.47645 4.3245 9.09443C3.9428 8.71242 3.9428 8.09305 4.3245 7.71103L7.72137 4.31133C8.10307 3.92931 8.72192 3.92931 9.10362 4.31133C9.48532 4.69334 9.48532 5.31271 9.10362 5.69473L5.70675 9.09443Z" fill="#A1BAD1"/>
<path d="M3.94169 8.48175C3.94169 7.9415 4.37929 7.50354 4.91909 7.50354C5.45889 7.50354 5.89648 7.9415 5.89648 8.48175C5.89648 9.022 5.45889 9.45996 4.91909 9.45996C4.37929 9.45996 3.94169 9.022 3.94169 8.48175Z" fill="#13528B"/>
<path d="M13.8572 0.460281V9.78602H12.2256V0.460281H13.8572Z" fill="white" fill-opacity="0.87"/>
<path d="M17.2484 9.78602H15.6932V3.48381H17.1336L17.2611 4.30029C17.6563 3.66242 18.4211 3.29245 19.2751 3.29245C20.8557 3.29245 21.6715 4.27478 21.6715 5.90774V9.78602H20.1164V6.27771C20.1164 5.21883 19.5938 4.70853 18.7907 4.70853C17.8347 4.70853 17.2484 5.37192 17.2484 6.39252V9.78602Z" fill="white" fill-opacity="0.87"/>
<path d="M22.5749 3.48381H23.4799V2.71836C23.4799 1.00885 24.3467 0.294434 25.6214 0.294434C25.8635 0.294434 26.1567 0.307191 26.4244 0.358221V1.685H25.8763C25.1752 1.685 25.0223 2.09324 25.0223 2.71836V3.48381H27.5334V0.294434H29.0885V9.78602H27.5334V4.78508H25.0223V9.78602H23.4799V4.78508H22.5749V3.48381Z" fill="white" fill-opacity="0.87"/>
<path d="M34.9883 3.48381H36.5434V9.78602H35.103L34.9883 8.94403C34.6059 9.54363 33.7901 9.95187 32.9488 9.95187C31.4957 9.95187 30.6416 8.96954 30.6416 7.42588V3.48381H32.1968V6.87731C32.1968 8.07651 32.6684 8.5613 33.5352 8.5613C34.5167 8.5613 34.9883 7.98721 34.9883 6.78801V3.48381Z" fill="white" fill-opacity="0.87"/>
<path d="M37.6555 6.62216C37.6555 4.67026 38.9429 3.29245 40.804 3.29245C42.5248 3.29245 43.6975 4.24926 43.8632 5.76741H42.3081C42.1297 5.05298 41.607 4.68302 40.8677 4.68302C39.8735 4.68302 39.2106 5.43571 39.2106 6.62216C39.2106 7.80861 39.8225 8.54854 40.8167 8.54854C41.5943 8.54854 42.1424 8.16582 42.3081 7.47691H43.876C43.6848 8.94403 42.4611 9.95187 40.8167 9.95187C38.9047 9.95187 37.6555 8.62509 37.6555 6.62216Z" fill="white" fill-opacity="0.87"/>
<path d="M47.8505 9.95187C45.9767 9.95187 44.6638 8.58681 44.6638 6.63492C44.6638 4.6575 45.9512 3.29245 47.7995 3.29245C49.6861 3.29245 50.8843 4.55544 50.8843 6.5201V6.99213L46.1424 7.00488C46.2572 8.11479 46.8435 8.67612 47.876 8.67612C48.7301 8.67612 49.2909 8.34442 49.4694 7.74482H50.9098C50.6421 9.12263 49.4949 9.95187 47.8505 9.95187ZM47.8123 4.5682C46.8945 4.5682 46.3336 5.06574 46.1807 6.0098H49.3419C49.3419 5.14229 48.7428 4.5682 47.8123 4.5682Z" fill="white" fill-opacity="0.87"/>
<path d="M53.684 9.78602H52.1289V3.48381H53.5693L53.6968 4.30029C54.0919 3.66242 54.8567 3.29245 55.7108 3.29245C57.2914 3.29245 58.1072 4.27478 58.1072 5.90774V9.78602H56.5521V6.27771C56.5521 5.21883 56.0294 4.70853 55.2264 4.70853C54.2704 4.70853 53.684 5.37192 53.684 6.39252V9.78602Z" fill="white" fill-opacity="0.87"/>
<path d="M61.7766 9.78602H60.2215V4.78508H59.0105V3.48381H60.2215V1.51915H61.7766V3.48381H63.0003V4.78508H61.7766V9.78602Z" fill="white" fill-opacity="0.87"/>
</svg>
