<svg width="206" height="24" viewBox="0 0 206 24" fill="none" xmlns="http://www.w3.org/2000/svg">
<path d="M202.132 18.3356C200.644 18.3356 199.156 17.5196 199.156 15.2876V7.91964H197.908L197.74 7.15164L201.7 3.43164H202.708V6.47964H205.42L205.588 6.93564L205.012 7.91964H202.684V14.8796C202.684 15.8396 202.924 16.5116 203.668 16.5116C204.196 16.5116 204.724 16.2956 205.18 16.0796L205.54 16.6796C204.7 17.4716 203.404 18.3356 202.132 18.3356Z" fill="black"/>
<path d="M197.139 17.3519V17.9999H191.139V17.3519C191.955 17.1599 192.435 16.6079 192.435 14.7119V9.71994C192.363 8.87994 192.051 8.54394 191.235 8.47194L191.163 7.87194C193.011 7.39194 194.715 6.59994 195.699 6.14394L196.155 6.55194C196.035 7.24794 195.987 9.04794 195.987 10.1999H195.963V14.7119C195.963 16.6079 196.395 17.1599 197.139 17.3519ZM192.123 2.47194C192.123 1.19994 193.035 0.335938 194.139 0.335938C195.123 0.335938 195.939 1.17594 195.939 2.18394C195.939 3.35994 194.979 4.34394 193.923 4.34394C193.011 4.34394 192.123 3.57594 192.123 2.47194Z" fill="black"/>
<path d="M188.988 14.0396C189.012 15.4556 189.684 15.6956 190.404 15.7196L190.548 16.3436C189.372 16.8236 187.596 17.7116 186.612 18.2636L186.012 18.0236C185.916 17.6636 185.796 17.2076 185.724 16.7036C184.476 17.7836 183.3 18.3356 182.124 18.3356C179.988 18.3356 177.78 16.2476 177.78 12.8636C177.78 8.80756 180.924 6.14355 184.068 6.14355C184.5 6.14355 184.98 6.19156 185.46 6.28755V3.67156C185.388 2.87955 185.052 2.51955 184.26 2.47155L184.188 1.87155C186.036 1.39155 187.74 0.599555 188.724 0.143555L189.18 0.551554C189.06 1.24755 189.012 3.04755 189.012 4.19955H188.988V14.0396ZM181.164 11.6396C181.164 14.0876 182.268 16.3436 183.78 16.3436C184.356 16.3436 184.884 16.0076 185.46 15.4316V8.56755C184.764 7.87155 183.996 7.39155 183.252 7.39155C181.956 7.39155 181.164 9.38355 181.164 11.6396Z" fill="black"/>
<path d="M163.726 17.3516C164.374 17.1836 164.782 16.7516 164.878 15.4076V9.98355C164.758 8.90356 164.134 8.71156 163.486 8.68756L163.342 8.06355C164.518 7.58356 166.294 6.69555 167.278 6.14355L167.878 6.38355C168.022 6.93555 168.166 7.65556 168.262 8.37556C169.246 7.36756 170.758 6.14355 172.15 6.14355C174.334 6.14355 175.678 7.46356 175.678 9.67156V14.7116C175.678 16.6076 176.11 17.1596 176.854 17.3516V17.9996H170.854V17.3516C171.67 17.1596 172.15 16.6076 172.15 14.7116V10.4156C172.15 9.11956 171.838 8.30356 170.782 8.30356C170.038 8.30356 169.126 8.92756 168.406 9.64756V14.7116H168.43C168.43 16.6076 168.91 17.1596 169.726 17.3516V17.9996H163.726V17.3516Z" fill="black"/>
<path d="M159.276 18.3356C158.436 18.3356 157.668 17.9516 157.404 17.1836C156.564 17.8076 155.508 18.3356 154.188 18.3356C152.532 18.3356 151.14 17.3036 151.14 15.7676C151.14 13.9916 153.012 13.1036 154.836 12.5996L157.284 11.9276V10.4636C157.284 8.63956 157.188 7.51156 155.868 7.51156C155.004 7.51156 154.404 8.15955 154.404 8.99955C154.404 9.50356 154.74 10.0796 155.1 10.4636L152.1 11.3036C151.452 10.8716 151.164 10.2476 151.164 9.69555C151.164 7.96755 154.62 6.14355 157.332 6.14355C159.348 6.14355 160.812 7.41555 160.812 9.38355V15.7676C160.812 16.2476 161.052 16.4156 161.34 16.4156C161.628 16.4156 161.964 16.2716 162.252 16.0796L162.612 16.6796C161.724 17.4956 160.572 18.3356 159.276 18.3356ZM154.836 15.1676C154.836 15.9356 155.388 16.5356 156.204 16.5356C156.588 16.5356 156.948 16.3676 157.284 16.1276V13.1276L156.78 13.2716C155.604 13.6316 154.836 14.1836 154.836 15.1676Z" fill="black"/>
<path d="M136.351 17.3512C137.479 17.0872 137.743 16.6792 137.743 14.6152V4.63122C137.743 2.56722 137.479 2.11122 136.351 1.84722V1.19922H142.159C147.319 1.19922 150.055 3.33522 150.055 6.31122C150.055 9.81522 146.239 11.6152 143.023 11.6152L142.975 10.9432C145.279 10.4392 146.191 8.59122 146.191 6.59922C146.191 4.46322 145.159 2.47122 142.063 2.47122H141.511V14.6152C141.511 16.6792 142.495 17.1352 144.295 17.3512V17.9992H136.351V17.3512Z" fill="black"/>
<path d="M122.906 17.3516C123.65 17.1596 124.082 16.6076 124.082 14.7116V3.67156C124.01 2.87955 123.674 2.51955 122.882 2.47155L122.81 1.87155C124.658 1.39155 126.362 0.599555 127.346 0.143555L127.802 0.551554C127.682 1.24755 127.634 3.04755 127.634 4.19955H127.61V14.7116C127.61 16.6076 128.09 17.1596 128.906 17.3516V17.9996H122.906V17.3516Z" fill="black"/>
<path d="M119.104 18.3356C118.264 18.3356 117.496 17.9516 117.232 17.1836C116.392 17.8076 115.336 18.3356 114.016 18.3356C112.36 18.3356 110.968 17.3036 110.968 15.7676C110.968 13.9916 112.84 13.1036 114.664 12.5996L117.112 11.9276V10.4636C117.112 8.63956 117.016 7.51156 115.696 7.51156C114.832 7.51156 114.232 8.15955 114.232 8.99955C114.232 9.50356 114.568 10.0796 114.928 10.4636L111.928 11.3036C111.28 10.8716 110.992 10.2476 110.992 9.69555C110.992 7.96755 114.448 6.14355 117.16 6.14355C119.176 6.14355 120.64 7.41555 120.64 9.38355V15.7676C120.64 16.2476 120.88 16.4156 121.168 16.4156C121.456 16.4156 121.792 16.2716 122.08 16.0796L122.44 16.6796C121.552 17.4956 120.4 18.3356 119.104 18.3356ZM114.664 15.1676C114.664 15.9356 115.216 16.5356 116.032 16.5356C116.416 16.5356 116.776 16.3676 117.112 16.1276V13.1276L116.608 13.2716C115.432 13.6316 114.664 14.1836 114.664 15.1676Z" fill="black"/>
<path d="M97.3519 23.3516C98.1919 23.1836 98.4799 22.3196 98.4799 20.9276V9.98355C98.3599 8.90356 97.7359 8.71156 97.0879 8.68756L96.9438 8.06355C98.1198 7.58356 99.8959 6.69555 100.88 6.14355L101.48 6.38355C101.576 6.74355 101.696 7.22355 101.768 7.70356C102.992 6.67155 104.144 6.14355 105.296 6.14355C107.432 6.14355 109.64 8.23156 109.64 11.6156C109.64 15.6716 106.496 18.3356 103.352 18.3356C102.944 18.3356 102.464 18.2876 102.008 18.2156V20.9276C102.008 22.4396 102.44 23.0876 104.288 23.3516V23.9996H97.3519V23.3516ZM102.008 15.9596C102.704 16.6316 103.424 17.0876 104.168 17.0876C105.464 17.0876 106.256 15.0956 106.256 12.8396C106.256 10.3916 105.152 8.13556 103.64 8.13556C103.088 8.13556 102.56 8.44755 102.008 8.99955V15.9596Z" fill="black"/>
<path d="M89.8211 18.3356C86.4371 18.3356 83.7251 15.5516 83.7251 12.2636C83.7251 9.14356 86.1251 6.14355 89.7011 6.14355C93.0131 6.14355 95.7491 8.83155 95.7491 12.1436C95.7491 15.2876 93.3251 18.3356 89.8211 18.3356ZM87.1811 10.9196C87.1811 14.1596 88.7171 17.0396 90.4691 17.0396C91.7411 17.0396 92.2931 15.3116 92.2931 13.2716C92.2931 10.2236 90.6851 7.43956 89.0531 7.43956C87.7331 7.43956 87.1811 8.90356 87.1811 10.9196Z" fill="black"/>
<path d="M74.5293 18.3353C69.2973 18.3353 65.1213 14.3513 65.1213 9.57528C65.1213 4.79928 69.1533 0.863281 74.2653 0.863281C76.2813 0.863281 78.7053 1.36728 80.1693 2.06328L80.4093 6.33528L79.8573 6.52728C77.9613 4.17528 75.8973 2.08728 73.6893 2.08728C71.0013 2.08728 69.5853 5.15928 69.5853 8.78328C69.5853 12.9593 72.2013 16.9673 75.5373 16.9673C76.2333 16.9673 77.0013 16.6793 77.4813 16.2473V12.7433C77.4813 10.7033 76.4013 10.1033 74.6973 9.95928V9.31128H82.4013V9.95928C81.5853 10.2233 81.2493 10.6793 81.2493 12.7193V18.1913L80.6493 18.2873L79.3533 17.3993C78.4893 17.7593 76.9053 18.3353 74.5293 18.3353Z" fill="black"/>
<path d="M51.7586 18.3356C48.3746 18.3356 45.6626 15.5516 45.6626 12.2636C45.6626 9.14356 48.0626 6.14355 51.6386 6.14355C54.9506 6.14355 57.6866 8.83155 57.6866 12.1436C57.6866 15.2876 55.2626 18.3356 51.7586 18.3356ZM49.1186 10.9196C49.1186 14.1596 50.6546 17.0396 52.4066 17.0396C53.6786 17.0396 54.2306 15.3116 54.2306 13.2716C54.2306 10.2236 52.6226 7.43956 50.9906 7.43956C49.6706 7.43956 49.1186 8.90356 49.1186 10.9196Z" fill="black"/>
<path d="M35.7112 17.3516C36.5512 17.1836 36.8392 16.3196 36.8392 14.9276V9.98355C36.7192 8.90356 36.0952 8.71156 35.4472 8.68756L35.3032 8.06355C36.4792 7.58356 38.2552 6.69555 39.2392 6.14355L39.8392 6.38355C40.0312 7.07955 40.2232 8.08756 40.2952 9.02356C41.0872 7.70356 42.3112 6.28755 43.3912 6.28755C44.4472 6.28755 45.2632 7.17556 45.5272 7.67956L44.3272 10.4156C43.8472 9.93555 43.2712 9.38355 42.3592 9.38355C41.7112 9.38355 41.0152 9.59956 40.3672 10.3436V14.9276C40.3672 16.4396 40.7992 17.0876 42.6472 17.3516V17.9996H35.7112V17.3516Z" fill="black"/>
<path d="M31.2257 18.3356C29.7377 18.3356 28.2497 17.5196 28.2497 15.2876V7.91964H27.0017L26.8337 7.15164L30.7937 3.43164H31.8017V6.47964H34.5137L34.6817 6.93564L34.1057 7.91964H31.7777V14.8796C31.7777 15.8396 32.0177 16.5116 32.7617 16.5116C33.2897 16.5116 33.8177 16.2956 34.2737 16.0796L34.6337 16.6796C33.7937 17.4716 32.4977 18.3356 31.2257 18.3356Z" fill="black"/>
<path d="M21.4847 18.3351C19.6847 18.3351 17.8367 17.5671 16.8287 15.9831L18.8687 13.7271C19.8287 15.9111 21.3407 16.9911 22.4927 16.9911C23.1887 16.9911 23.8367 16.6791 23.8367 15.8871C23.8367 15.1191 23.2367 14.5911 22.0607 14.0871L19.8047 13.1031C18.0527 12.3351 17.4527 11.1111 17.4527 9.93514C17.4527 7.75114 19.5407 6.11914 22.0607 6.11914C23.4527 6.11914 24.8447 6.62314 25.8287 7.48714L24.4367 10.0791C23.6927 8.80714 22.6607 7.36714 21.2927 7.36714C20.4767 7.36714 19.9727 7.89514 19.9727 8.56714C19.9727 9.40714 20.7647 9.76714 21.5087 10.1031L23.7167 11.0631C25.2527 11.7351 26.1167 12.7431 26.1167 14.2551C26.1167 16.5591 24.1727 18.3351 21.4847 18.3351Z" fill="black"/>
<path d="M0.160034 17.3512C1.28803 17.0392 1.84003 16.1752 2.34403 14.9032L7.69603 1.19922H9.73603L14.776 14.7112C15.376 16.2952 16 17.0632 16.84 17.3512V17.9992H9.52003V17.3512C10.84 17.2552 11.392 16.0552 10.792 14.3752L10.24 12.8392H4.84003L4.16803 14.6392C3.59203 16.1752 4.28803 17.0632 6.13603 17.3512V17.9992H0.160034V17.3512ZM5.29603 11.5672H9.76003L7.55203 5.49522L5.29603 11.5672Z" fill="black"/>
</svg>
