<svg width="47" height="47" viewBox="0 0 47 47" fill="none" xmlns="http://www.w3.org/2000/svg">
<path fill-rule="evenodd" clip-rule="evenodd" d="M9.57143 9.76923C8.03292 9.76923 6.78571 11.0091 6.78571 12.5385V37.4615C6.78571 38.9909 8.03292 40.2308 9.57143 40.2308H37.4286C38.9671 40.2308 40.2143 38.9909 40.2143 37.4615V12.5385C40.2143 11.0091 38.9671 9.76923 37.4286 9.76923H9.57143ZM4 12.5385C4 9.47965 6.49441 7 9.57143 7H37.4286C40.5056 7 43 9.47965 43 12.5385V37.4615C43 40.5203 40.5056 43 37.4286 43H9.57143C6.49441 43 4 40.5203 4 37.4615V12.5385Z" fill="url(#paint0_linear_754_461)"/>
<path fill-rule="evenodd" clip-rule="evenodd" d="M12.3571 4C13.1264 4 13.75 4.61561 13.75 5.375V8.125C13.75 8.88439 13.1264 9.5 12.3571 9.5C11.5879 9.5 10.9643 8.88439 10.9643 8.125V5.375C10.9643 4.61561 11.5879 4 12.3571 4ZM34.6429 4C35.4121 4 36.0357 4.61561 36.0357 5.375V8.125C36.0357 8.88439 35.4121 9.5 34.6429 9.5C33.8736 9.5 33.25 8.88439 33.25 8.125V5.375C33.25 4.61561 33.8736 4 34.6429 4ZM4 15C4 14.2406 4.6236 13.625 5.39286 13.625H41.6071C42.3764 13.625 43 14.2406 43 15C43 15.7594 42.3764 16.375 41.6071 16.375H5.39286C4.6236 16.375 4 15.7594 4 15ZM13.42 21.4267C14.0138 20.4358 15.4955 19.125 17.9138 19.125C19.249 19.125 20.6077 19.4815 21.6681 20.2788C22.7648 21.1034 23.4733 22.3557 23.4756 23.9212C23.4816 24.5365 23.3634 25.1469 23.1277 25.7167C22.8922 26.2861 22.5442 26.8035 22.104 27.2387C22.0058 27.3376 21.9042 27.4315 21.7999 27.5207C22.0554 27.7043 22.3004 27.9101 22.5284 28.1401C23.5402 29.1578 23.9353 30.521 23.9353 31.8592C23.9353 33.4868 23.2209 34.8224 22.0705 35.7195C20.952 36.5918 19.4935 37 18.0052 37C15.1828 37 13.52 34.9971 12.9857 34.1032C12.5948 33.4491 12.8149 32.6061 13.4774 32.2202C14.1399 31.8342 14.9939 32.0516 15.3848 32.7056C15.7001 33.2331 16.6194 34.25 18.0052 34.25C19.0058 34.25 19.8159 33.9733 20.3437 33.5616C20.8397 33.1748 21.1496 32.6276 21.1496 31.8592C21.1496 31.0284 20.9074 30.4356 20.5402 30.0663L20.5385 30.0645C19.7839 29.3028 18.5336 28.976 17.9173 28.976C17.148 28.976 16.5244 28.3604 16.5244 27.601C16.5244 26.8416 17.148 26.226 17.9173 26.226C18.1276 26.226 18.5253 26.1707 18.973 26.0073C19.415 25.8459 19.8218 25.6096 20.1175 25.3108C20.1217 25.3065 20.1259 25.3023 20.1301 25.2981C20.3102 25.1208 20.4525 24.9097 20.5487 24.6772C20.6448 24.4447 20.6929 24.1956 20.69 23.9445C20.6899 23.9393 20.6899 23.9341 20.6899 23.9289C20.6899 23.2533 20.4156 22.7939 19.9803 22.4666C19.5068 22.1106 18.781 21.875 17.9138 21.875C16.6062 21.875 15.9777 22.5597 15.8176 22.8268C15.426 23.4804 14.5717 23.6969 13.9097 23.3102C13.2476 22.9236 13.0283 22.0804 13.42 21.4267ZM30.6321 19.7369C30.8715 19.5627 31.1611 19.4688 31.4584 19.4688H31.8571C32.6264 19.4688 33.25 20.0844 33.25 20.8438V35.2812C33.25 36.0406 32.6264 36.6562 31.8571 36.6562C31.0879 36.6562 30.4643 36.0406 30.4643 35.2812V23.2751L28.5049 24.7006C27.8857 25.1512 27.0137 25.0208 26.5573 24.4095C26.1009 23.7982 26.233 22.9374 26.8522 22.4869L30.6321 19.7369Z" fill="url(#paint1_linear_754_461)"/>
<defs>
<linearGradient id="paint0_linear_754_461" x1="-0.875" y1="25" x2="45.6" y2="25" gradientUnits="userSpaceOnUse">
<stop stop-color="#F4A836"/>
<stop offset="1" stop-color="#F37435"/>
</linearGradient>
<linearGradient id="paint1_linear_754_461" x1="-0.875" y1="20.5" x2="45.6" y2="20.5" gradientUnits="userSpaceOnUse">
<stop stop-color="#F4A836"/>
<stop offset="1" stop-color="#F37435"/>
</linearGradient>
</defs>
</svg>
