<svg width="47" height="47" viewBox="0 0 47 47" fill="none" xmlns="http://www.w3.org/2000/svg">
<path d="M7.83398 19.6987V26.4041C7.83398 30.0329 7.83398 31.8482 8.26678 33.3287C9.29882 36.8537 12.0562 39.6267 15.5812 40.8605C16.7562 41.2051 17.9233 41.5714 20.1715 41.9023C21.4837 42.0897 22.8185 42.0459 24.1156 41.7731C24.7089 41.6516 25.1927 41.5479 25.6 41.4597C26.5596 41.2521 27.5192 41.0034 28.4004 40.5706C29.3952 40.085 30.1688 39.5797 31.2889 38.7435C31.9587 38.2441 32.5717 37.6351 33.7956 36.417L40.1543 30.0916C40.4622 29.7858 40.7066 29.4221 40.8733 29.0215C41.0401 28.6209 41.1259 28.1912 41.1259 27.7573C41.1259 27.3233 41.0401 26.8937 40.8733 26.493C40.7066 26.0924 40.4622 25.7287 40.1543 25.4229C39.5306 24.8035 38.6873 24.4558 37.8082 24.4558C36.9292 24.4558 36.0858 24.8035 35.4622 25.4229L31.0559 29.8076V19.6987" stroke="url(#paint0_linear_596_12591)" stroke-width="2.9375" stroke-linecap="round" stroke-linejoin="round"/>
<path d="M25.2494 15.3762V11.6514C25.2494 10.0554 26.5498 8.76286 28.1537 8.76286C29.7556 8.76286 31.0559 10.0554 31.0559 11.6514V20.3151M19.4449 19.6904V7.73473C19.4449 6.13869 20.7453 4.84619 22.3472 4.84619C23.9511 4.84619 25.2494 6.13869 25.2494 7.73473V19.6982M13.6385 14.3343V19.6982V9.70286C13.6581 8.94593 13.9726 8.22661 14.515 7.69819C15.0573 7.16978 15.7845 6.87406 16.5417 6.87406C17.2989 6.87406 18.0261 7.16978 18.5685 7.69819C19.1108 8.22661 19.4253 8.94593 19.4449 9.70286V19.6982M13.6385 17.3384V15.5681C13.6385 13.972 12.3401 12.6795 10.7362 12.6795C9.13432 12.6795 7.83398 13.972 7.83398 15.5681V20.93" stroke="url(#paint1_linear_596_12591)" stroke-width="2.9375" stroke-linecap="round" stroke-linejoin="round"/>
<defs>
<linearGradient id="paint0_linear_596_12591" x1="6.78954" y1="31.8552" x2="41.2562" y2="30.8107" gradientUnits="userSpaceOnUse">
<stop stop-color="#F4A836"/>
<stop offset="1" stop-color="#F37435"/>
</linearGradient>
<linearGradient id="paint1_linear_596_12591" x1="6.26732" y1="19.8438" x2="39.6895" y2="19.8438" gradientUnits="userSpaceOnUse">
<stop stop-color="#F4A836"/>
<stop offset="1" stop-color="#F37435"/>
</linearGradient>
</defs>
</svg>
