<svg width="80" height="64" viewBox="0 0 80 64" fill="none" xmlns="http://www.w3.org/2000/svg">
<path d="M53.6202 3.36151C48.2919 5.49285 45.5142 6.69828 45.1997 6.99527L44.7105 7.46696V16.796C44.7105 26.8238 44.7804 27.7497 45.6364 30.2828C46.6497 33.2178 48.5539 36.0829 50.7901 37.9871C51.5588 38.651 54.0745 40.2932 56.8871 41.9878C60.8878 44.3986 61.7788 44.8703 62.3553 44.8703C62.9143 44.8703 63.648 44.5034 66.4083 42.8438C68.2601 41.7257 69.8848 40.7649 70.0071 40.7299C70.1818 40.66 70.2168 42.442 70.1818 49.9017C70.1294 58.9686 70.1294 59.1783 69.7626 59.6674C69.5704 59.9295 69.1336 60.2964 68.8017 60.4536C68.2427 60.7506 66.3559 60.768 36.7791 60.768H5.36801L4.68668 60.3837C4.24993 60.1391 3.88306 59.7373 3.65595 59.2831C3.30655 58.5843 3.30655 58.1999 3.30655 40.5377V22.5087H21.982H40.675L41.1641 22.0894C41.5485 21.7575 41.6533 21.5303 41.6533 20.9364C41.6533 20.3249 41.5485 20.1153 41.0768 19.696L40.5177 19.1894H21.9121H3.30655V17.2152C3.30655 14.9966 3.60354 14.0357 4.45957 13.4767C4.93126 13.1797 5.89211 13.1622 22.8206 13.0748L40.6924 12.9875L41.1641 12.5158C41.828 11.8345 41.828 10.8212 41.1641 10.1399L40.6924 9.66819H22.7332C8.18069 9.66819 4.65174 9.7206 4.0927 9.8953C2.99209 10.2796 1.61195 11.2929 1.03544 12.1664C-0.0826399 13.8435 -0.0302298 12.5333 0.0221803 37.2883L0.0745905 59.8072L0.458931 60.6283C0.983032 61.7813 2.13605 62.9518 3.28908 63.5108L4.2674 64H36.849H69.4306L70.3565 63.5108C71.4921 62.9169 72.5054 61.8861 73.0469 60.803L73.4487 59.9819L73.5012 49.1854L73.5361 38.3889L74.8463 37.0787C77.5367 34.3533 79.3012 30.8419 79.8078 27.1557C79.9301 26.3346 80 22.2641 80 16.6562V7.5019L79.6157 7.06516C79.0391 6.41876 63.2462 0.147018 62.2679 0.16449C61.7962 0.181961 59.001 1.21269 53.6202 3.36151ZM69.6228 6.47117L76.6982 9.30132L76.6283 18.0538C76.5584 27.5051 76.5409 27.6274 75.5277 30.0732C74.8289 31.7503 73.309 33.8991 71.9463 35.1395C71.1427 35.8907 69.3607 37.0787 66.618 38.7209C64.3643 40.0835 62.4426 41.2016 62.3553 41.2016C61.9535 41.2016 53.9172 36.1702 52.9564 35.3142C50.86 33.4624 49.2702 30.8943 48.519 28.1515C48.1521 26.8587 48.1347 26.387 48.0648 18.0538L48.0124 9.30132L55.0528 6.48864C58.9311 4.93381 62.198 3.6585 62.3029 3.64103C62.4251 3.64103 65.7095 4.91634 69.6228 6.47117Z" fill="#06325E"/>
<path d="M68.0323 15.4157C67.7528 15.5555 65.8661 17.32 63.8395 19.3465L60.1883 23.0327L58.4063 21.2857C56.7642 19.661 56.5895 19.5387 55.9431 19.5387C54.9648 19.5387 54.3184 20.1851 54.3184 21.1634C54.3184 21.8447 54.4232 21.9845 56.8865 24.4652C59.4371 27.0333 59.4545 27.0508 60.2407 27.0508H61.0443L65.7088 22.3688C70.1986 17.8965 70.3908 17.6694 70.3908 17.0405C70.3908 16.1495 70.1287 15.7127 69.4299 15.4157C68.7137 15.1187 68.6962 15.1187 68.0323 15.4157Z" fill="#06325E"/>
<path d="M10.1034 51.6663C9.42212 52.3651 9.38718 53.3609 10.051 54.0248L10.5227 54.479H17.633H24.7433L25.215 54.0248C25.8789 53.3609 25.844 52.3651 25.1626 51.6663L24.656 51.1597H17.633H10.6101L10.1034 51.6663Z" fill="#06325E"/>
</svg>
