<svg width="60" height="42" viewBox="0 0 60 42" fill="none" xmlns="http://www.w3.org/2000/svg">
<path fill-rule="evenodd" clip-rule="evenodd" d="M3.75807 5.5112C3.79559 5.475 3.94234 5.3634 4.36149 5.27102C4.95321 5.14061 5.85154 5.10857 7.08854 5.25081C9.54839 5.53367 12.9124 6.45144 16.8907 7.97284L18.2302 4.47023C14.1156 2.89671 10.4202 1.85921 7.51693 1.52536C6.0724 1.35926 4.71325 1.35351 3.55441 1.6089C2.3997 1.86339 1.20142 2.43853 0.51114 3.63105C-0.0388767 4.58187 -0.0876849 5.6282 0.0967974 6.57427C0.27811 7.5041 0.700051 8.43999 1.24244 9.34404C2.32778 11.1531 4.10142 13.1708 6.33567 15.2678C10.8266 19.4829 17.4959 24.3118 25.2774 28.7957C33.0591 33.2797 40.5838 36.6293 46.4867 38.4028C49.4235 39.2851 52.0607 39.8087 54.1724 39.8419C55.2276 39.8585 56.2496 39.7551 57.1457 39.4472C58.0571 39.1341 58.939 38.5702 59.4888 37.6199C60.188 36.4104 60.0771 35.0659 59.7078 33.9269C59.3368 32.7828 58.6326 31.594 57.7424 30.4104C55.9528 28.031 53.1342 25.3113 49.6281 22.4978L47.2811 25.4226C50.6738 28.145 53.2229 30.6402 54.7454 32.6644C55.5112 33.6826 55.949 34.4928 56.1406 35.0836C56.2768 35.5037 56.2533 35.6909 56.2405 35.7423C56.2132 35.7682 56.1301 35.831 55.9272 35.9007C55.5878 36.0173 55.0392 36.1051 54.2313 36.0924C52.6166 36.067 50.3569 35.6499 47.5657 34.8114C42.0126 33.143 34.7571 29.9301 27.1497 25.5466C19.5422 21.1629 13.1264 16.4984 8.90203 12.5335C6.77866 10.5406 5.28717 8.79666 4.4581 7.41479C4.04329 6.72339 3.84571 6.20651 3.77747 5.85655C3.73712 5.64962 3.74942 5.54758 3.75807 5.5112ZM3.76024 5.50306C3.76192 5.49748 3.76318 5.49498 3.76339 5.49512C3.76359 5.49526 3.76275 5.49806 3.76024 5.50306Z" fill="url(#paint0_linear_595_12448)"/>
<path fill-rule="evenodd" clip-rule="evenodd" d="M29.9999 3.75C20.6801 3.75 13.1249 11.3052 13.1249 20.625C13.1249 29.9448 20.6801 37.5 29.9999 37.5C39.3197 37.5 46.8749 29.9448 46.8749 20.625C46.8749 11.3052 39.3197 3.75 29.9999 3.75ZM9.37493 20.625C9.37493 9.23413 18.6091 0 29.9999 0C41.3908 0 50.6249 9.23413 50.6249 20.625C50.6249 32.0159 41.3908 41.25 29.9999 41.25C18.6091 41.25 9.37493 32.0159 9.37493 20.625Z" fill="url(#paint1_linear_595_12448)"/>
<defs>
<linearGradient id="paint0_linear_595_12448" x1="-7.5" y1="20.625" x2="64" y2="20.625" gradientUnits="userSpaceOnUse">
<stop stop-color="#F4A836"/>
<stop offset="1" stop-color="#F37435"/>
</linearGradient>
<linearGradient id="paint1_linear_595_12448" x1="-7.5" y1="20.625" x2="64" y2="20.625" gradientUnits="userSpaceOnUse">
<stop stop-color="#F4A836"/>
<stop offset="1" stop-color="#F37435"/>
</linearGradient>
</defs>
</svg>
