<svg width="62" height="45" viewBox="0 0 62 45" fill="none" xmlns="http://www.w3.org/2000/svg">
<path fill-rule="evenodd" clip-rule="evenodd" d="M7.39365 8.97678C7.42753 8.94409 7.56005 8.84331 7.93856 8.75989C8.4729 8.64213 9.28411 8.61319 10.4012 8.74164C12.6225 8.99707 15.6603 9.82585 19.2528 11.1997L20.4624 8.03675C16.7468 6.61582 13.4097 5.67892 10.788 5.37745C9.48356 5.22745 8.25621 5.22226 7.20974 5.45289C6.167 5.6827 5.08492 6.20206 4.46158 7.27895C3.96489 8.13757 3.92082 9.08243 4.08741 9.93677C4.25114 10.7764 4.63217 11.6216 5.12196 12.438C6.10206 14.0716 7.70371 15.8936 9.72131 17.7873C13.7767 21.5937 19.7993 25.9543 26.8263 30.0034C33.8534 34.0526 40.6484 37.0774 45.9789 38.6789C48.631 39.4756 51.0124 39.9485 52.9193 39.9785C53.8722 39.9935 54.7951 39.9001 55.6043 39.622C56.4273 39.3393 57.2237 38.83 57.7202 37.9719C58.3516 36.8797 58.2514 35.6656 57.9179 34.6371C57.5829 33.6039 56.947 32.5304 56.1431 31.4615C54.5271 29.3129 51.9818 26.8569 48.8157 24.3162L46.6963 26.9574C49.76 29.4158 52.0619 31.669 53.4368 33.497C54.1283 34.4164 54.5237 35.148 54.6967 35.6815C54.8197 36.0609 54.7984 36.2299 54.7868 36.2763C54.7623 36.2997 54.6872 36.3565 54.504 36.4194C54.1975 36.5247 53.7021 36.604 52.9725 36.5925C51.5144 36.5696 49.4738 36.193 46.9533 35.4357C41.9387 33.9291 35.3867 31.0278 28.517 27.0693C21.6472 23.1107 15.8535 18.8986 12.0388 15.3182C10.1213 13.5185 8.77447 11.9437 8.0258 10.6958C7.65122 10.0714 7.4728 9.60467 7.41117 9.28864C7.37473 9.10178 7.38584 9.00963 7.39365 8.97678ZM7.39561 8.96943C7.39713 8.96439 7.39826 8.96213 7.39845 8.96226C7.39864 8.96239 7.39788 8.96491 7.39561 8.96943Z" fill="url(#paint0_linear_754_460)"/>
<path fill-rule="evenodd" clip-rule="evenodd" d="M31.0909 7.38636C22.6748 7.38636 15.8522 14.2089 15.8522 22.625C15.8522 31.0411 22.6748 37.8636 31.0909 37.8636C39.5069 37.8636 46.3295 31.0411 46.3295 22.625C46.3295 14.2089 39.5069 7.38636 31.0909 7.38636ZM12.4658 22.625C12.4658 12.3387 20.8045 4 31.0909 4C41.3772 4 49.7159 12.3387 49.7159 22.625C49.7159 32.9113 41.3772 41.25 31.0909 41.25C20.8045 41.25 12.4658 32.9113 12.4658 22.625Z" fill="url(#paint1_linear_754_460)"/>
<defs>
<linearGradient id="paint0_linear_754_460" x1="-2.77273" y1="22.625" x2="61.7939" y2="22.625" gradientUnits="userSpaceOnUse">
<stop stop-color="#F4A836"/>
<stop offset="1" stop-color="#F37435"/>
</linearGradient>
<linearGradient id="paint1_linear_754_460" x1="-2.77273" y1="22.625" x2="61.7939" y2="22.625" gradientUnits="userSpaceOnUse">
<stop stop-color="#F4A836"/>
<stop offset="1" stop-color="#F37435"/>
</linearGradient>
</defs>
</svg>
