<svg width="51" height="50" viewBox="0 0 51 50" fill="none" xmlns="http://www.w3.org/2000/svg">
<path d="M25.5006 4.1661C27.9027 4.1661 30.1673 4.77027 32.1443 5.83277C31.986 6.75985 31.6777 7.4161 31.2568 7.83902C30.9957 8.09268 30.686 8.29108 30.3464 8.42235C29.0463 7.81171 27.6387 7.46311 26.2039 7.39647C24.7691 7.32982 23.3352 7.54644 21.9841 8.03395C20.633 8.52146 19.3912 9.27031 18.3295 10.2377C17.2678 11.2052 16.4071 12.3723 15.7964 13.6724C15.1858 14.9724 14.8372 16.3801 14.7705 17.8149C14.7039 19.2497 14.9205 20.6836 15.408 22.0347C15.8955 23.3858 16.6444 24.6276 17.6118 25.6893C18.5793 26.751 19.7463 27.6117 21.0464 28.2224C22.4811 28.7793 23.8048 29.0897 25.0173 29.1536L25.5006 29.1661C26.845 29.1661 28.3291 28.8522 29.9527 28.2244C31.8516 27.3717 33.4708 25.9995 34.6235 24.2661C35.9568 24.7244 37.5589 24.4453 38.5693 23.4307C37.7095 25.5859 36.3304 27.4953 34.5548 28.989L37.9318 39.1244C38.2007 39.931 38.1792 40.8063 37.8711 41.5987C37.5629 42.3911 36.9875 43.0509 36.2443 43.464C33.3881 45.0536 29.8006 45.8328 25.5006 45.8328C21.2006 45.8328 17.6131 45.0536 14.7568 43.464C14.0137 43.0509 13.4383 42.3911 13.1301 41.5987C12.822 40.8063 12.8005 39.931 13.0693 39.1244L16.4464 28.989C14.2394 27.132 12.6567 24.6413 11.913 21.8545C11.1693 19.0677 11.3005 16.1196 12.2889 13.4098C13.2773 10.7001 15.075 8.35986 17.4383 6.70633C19.8016 5.0528 22.6162 4.16598 25.5006 4.1661ZM31.8693 30.814L31.1193 31.1244L31.0818 31.1411C29.5306 31.8124 27.8703 32.1965 26.1818 32.2744H26.1464L25.9943 32.2828L25.5006 32.2911L25.0923 32.2828L24.8214 32.2724C23.1324 32.1953 21.4714 31.812 19.9193 31.1411L19.8818 31.1244C19.63 31.0254 19.38 30.9219 19.1318 30.814L16.0339 40.114C15.9957 40.2289 15.9987 40.3536 16.0424 40.4665C16.0862 40.5794 16.1679 40.6736 16.2735 40.7328C18.6277 42.039 21.6964 42.7078 25.5006 42.7078C29.3048 42.7078 32.3756 42.0411 34.7277 40.7328C34.8333 40.6736 34.915 40.5794 34.9587 40.4665C35.0025 40.3536 35.0055 40.2289 34.9673 40.114L31.8693 30.814ZM24.8548 32.2765L25.0923 32.2828L25.161 32.2869L25.5006 32.2911C25.2839 32.2911 25.0686 32.2862 24.8548 32.2765ZM37.9839 3.9161L38.0006 4.1661C38.0006 6.56194 38.5631 8.24943 39.6256 9.31193C40.6068 10.2911 42.1214 10.8474 44.2298 10.9265L44.7714 10.9369C46.7673 10.9369 46.8506 13.8078 45.0214 14.0453L44.7714 14.0619C42.3756 14.0619 40.6881 14.6244 39.6256 15.6869C38.6464 16.6703 38.0902 18.1828 38.011 20.2911L38.0006 20.8328C38.0006 22.9161 34.8756 22.9161 34.8756 20.8328C34.8756 18.4369 34.3131 16.7494 33.2506 15.6869C32.2673 14.7078 30.7548 14.1515 28.6464 14.0724L28.1048 14.0619C26.1089 14.0619 26.0256 11.1911 27.8548 10.9536L28.1048 10.9369C30.5006 10.9369 32.1881 10.3744 33.2506 9.31193C34.3131 8.24943 34.8756 6.56194 34.8756 4.1661C34.8756 2.17027 37.7464 2.08694 37.9839 3.9161ZM36.4381 10.3182L36.1381 10.7411C35.6164 11.4315 34.9793 12.0264 34.2548 12.4994C35.1259 13.0673 35.8694 13.8101 36.4381 14.6807C37.0062 13.8103 37.749 13.0675 38.6193 12.4994C37.8956 12.0262 37.2591 11.4313 36.7381 10.7411L36.4381 10.3182Z" fill="url(#paint0_linear_595_12488)"/>
<defs>
<linearGradient id="paint0_linear_595_12488" x1="2.16667" y1="23.8887" x2="46.6111" y2="23.8887" gradientUnits="userSpaceOnUse">
<stop stop-color="#F4A836"/>
<stop offset="1" stop-color="#F37435"/>
</linearGradient>
</defs>
</svg>
